<svg width="18" height="20" viewBox="0 0 18 20" fill="none" xmlns="http://www.w3.org/2000/svg">
<path fill-rule="evenodd" clip-rule="evenodd" d="M15.12 20C16.9352 20 18 18.9824 18 16.9667V6.83953C18 4.82387 16.9251 3.80626 14.8158 3.80626H13.1932C13.1425 1.75147 11.2868 0 8.99493 0C6.7031 0 4.84732 1.75147 4.79662 3.80626H3.18423C1.06479 3.80626 0 4.81409 0 6.83953V16.9667C0 18.9922 1.06479 20 3.18423 20H15.12ZM11.5606 3.80626H6.4293C6.48 2.52446 7.56507 1.48728 8.99493 1.48728C10.4248 1.48728 11.5099 2.52446 11.5606 3.80626ZM15.0896 18.4247H3.20451C2.19042 18.4247 1.63268 17.9061 1.63268 16.8885V6.91781C1.63268 5.9002 2.19042 5.3816 3.20451 5.3816H14.7854C15.7893 5.3816 16.3673 5.9002 16.3673 6.91781V16.8885C16.3673 17.9061 15.7893 18.4247 15.0896 18.4247Z" fill="#1A1A1A"/>
</svg>
