<svg width="18" height="20" viewBox="0 0 18 20" fill="none" xmlns="http://www.w3.org/2000/svg">
<path fill-rule="evenodd" clip-rule="evenodd" d="M1.56408 15.8406C1.74143 15.8406 1.93567 15.7886 2.13835 15.6586V6.54246C2.13835 6.04853 2.2228 5.89255 2.63661 5.64991L10.347 1.09185C10.3385 0.407279 9.90785 0 9.34203 0C9.07178 0 8.78465 0.0866551 8.48063 0.259965L1.5303 4.36742C0.626677 4.90468 0.5 5.10399 0.5 6.19584V14.3501C0.5 15.234 0.922255 15.8406 1.56408 15.8406ZM4.98435 17.8683C5.1617 17.8683 5.36438 17.8163 5.55862 17.6863V8.56153C5.55862 8.05893 5.63462 7.92894 6.05688 7.67764L13.7673 3.11958C13.7673 2.43501 13.3366 2.02773 12.7538 2.02773C12.4921 2.02773 12.2049 2.10572 11.9009 2.27903L4.94213 6.39515C4.0385 6.92374 3.91182 7.14038 3.91182 8.22357V16.3778C3.91182 17.2704 4.35941 17.8683 4.98435 17.8683ZM8.61575 20C8.93666 20 9.33358 19.87 9.77273 19.6101L16.3515 15.7279C17.2129 15.2166 17.5 14.7574 17.5 13.6915L17.4916 5.90121C17.4916 4.75737 17.0609 4.15078 16.343 4.15078C16.0221 4.15078 15.6421 4.28076 15.2114 4.53206L8.62419 8.43154C7.73746 8.96014 7.47566 9.41941 7.47566 10.4679V18.2582C7.47566 19.3761 7.88947 20 8.61575 20Z" fill="#1A1A1A"/>
</svg>
