<svg width="14" height="14" viewBox="0 0 14 14" fill="none" xmlns="http://www.w3.org/2000/svg">
<path fill-rule="evenodd" clip-rule="evenodd" d="M0.297492 13.6984C0.687423 14.0883 1.32405 14.1043 1.70602 13.7223L6.99795 8.43035L12.1387 13.5711C12.5207 13.9531 13.1732 13.9531 13.5631 13.5631C13.9531 13.1732 13.9451 12.5286 13.5631 12.1466L8.42239 7.00591L13.7223 1.70602C14.1043 1.32405 14.0883 0.687423 13.6984 0.297492C13.3085 -0.0924401 12.6798 -0.100398 12.2978 0.281576L6.99795 5.58146L1.84926 0.432774C1.46729 0.0508001 0.822706 0.0428423 0.432774 0.432774C0.0428423 0.822706 0.0428423 1.47524 0.424816 1.85722L5.5735 7.00591L0.281576 12.2978C-0.100398 12.6798 -0.0924401 13.3085 0.297492 13.6984Z" fill="#1A1A1A"/>
</svg>
