<svg width="20" height="18" viewBox="0 0 20 18" fill="none" xmlns="http://www.w3.org/2000/svg">
<path fill-rule="evenodd" clip-rule="evenodd" d="M14.4192 18C15.0544 18 15.4083 17.5469 15.4083 16.8491V14.4929H15.8439C18.5481 14.4929 20 13.0066 20 10.3423V4.15056C20 1.48623 18.5481 0 15.8439 0H4.15608C1.45191 0 0 1.49529 0 4.15056V10.3423C0 12.9976 1.45191 14.4929 4.15608 14.4929H9.98185L13.1125 17.275C13.6661 17.7644 13.9746 18 14.4192 18ZM14.0472 16.3416L11.1434 13.4598C10.7985 13.1063 10.5445 13.0338 10.0363 13.0338H4.15608C2.33212 13.0338 1.46098 12.1004 1.46098 10.3333V4.15056C1.46098 2.3834 2.33212 1.45904 4.15608 1.45904H15.8439C17.677 1.45904 18.539 2.3834 18.539 4.15056V10.3333C18.539 12.1004 17.677 13.0338 15.8439 13.0338H14.7278C14.2378 13.0338 14.0472 13.2241 14.0472 13.7135V16.3416Z" fill="#7B8E98"/>
</svg>
