<svg width="21" height="18" viewBox="0 0 21 18" fill="none" xmlns="http://www.w3.org/2000/svg">
<path fill-rule="evenodd" clip-rule="evenodd" d="M10.5 18C10.7115 18 11.0136 17.8627 11.2351 17.7353C16.9048 14.2059 20.5 10.098 20.5 5.92157C20.5 2.45098 18.0529 0 14.79 0C12.927 0 11.4164 0.862745 10.5 2.18627C9.60373 0.872549 8.07301 0 6.20997 0C2.94713 0 0.5 2.45098 0.5 5.92157C0.5 10.098 4.09517 14.2059 9.77492 17.7353C9.9864 17.8627 10.2885 18 10.5 18ZM10.5 16.3431C10.4597 16.3431 10.3892 16.2941 10.2986 16.2255C6.07905 13.5 2.12135 9.56863 2.12135 5.92157C2.12135 3.31373 3.85347 1.57843 6.18983 1.57843C8.08308 1.57843 9.1707 2.72549 9.81521 3.70588C10.0871 4.09804 10.2583 4.20588 10.5 4.20588C10.7417 4.20588 10.8927 4.08824 11.1848 3.70588C11.8797 2.7451 12.927 1.57843 14.8102 1.57843C17.1465 1.57843 18.8787 3.31373 18.8787 5.92157C18.8787 9.56863 14.9209 13.5 10.7115 16.2255C10.6108 16.2941 10.5403 16.3431 10.5 16.3431Z" fill="#1A1A1A"/>
</svg>
