<svg width="22" height="21" viewBox="0 0 22 21" fill="none" xmlns="http://www.w3.org/2000/svg">
<path d="M7.19124 3.29108C7.19124 2.21405 5.88158 1.34094 4.26603 1.34094C2.65048 1.34094 1.34082 2.21405 1.34082 3.29108" stroke="#1A1A1A" stroke-width="1.8" stroke-linecap="round"/>
<path d="M20.842 3.29108C20.842 2.21405 19.5323 1.34094 17.9168 1.34094C16.3012 1.34094 14.9916 2.21405 14.9916 3.29108" stroke="#1A1A1A" stroke-width="1.8" stroke-linecap="round"/>
<path d="M3.291 16.2219C3.291 17.8374 5.03721 19.1471 7.19128 19.1471C9.34534 19.1471 11.0916 17.8374 11.0916 16.2219L11.0916 13.2967" stroke="#1A1A1A" stroke-width="1.8" stroke-linecap="round"/>
<path d="M18.8921 16.2219C18.8921 17.8374 17.1459 19.1471 14.9918 19.1471C12.8378 19.1471 11.0916 17.8374 11.0916 16.2219L11.0916 13.2967" stroke="#1A1A1A" stroke-width="1.8" stroke-linecap="round"/>
<ellipse cx="11.0915" cy="10.8589" rx="2.92521" ry="2.43767" stroke="#1A1A1A" stroke-width="1.8" stroke-linecap="round"/>
</svg>
