<svg width="191" height="72" viewBox="0 0 191 72" fill="none" xmlns="http://www.w3.org/2000/svg">
<path d="M24.6319 37.2631L18.9475 32.842M18.9475 32.842C18.9475 32.842 13.0476 27.3983 10.737 23.3683M18.9475 32.842C15.3686 33.6841 7.45278 34.3578 4.4212 30.3157M11.3688 13.2631C16.4215 9.47359 16.4214 1.26306 16.4214 1.26306M11.3688 13.2631C10.1054 14.5262 10.1048 20.842 10.737 23.3683M11.3688 13.2631C10.1055 13.4736 7.45278 12.7578 6.94752 8.21043M10.737 23.3683C8.84226 23.5789 4.29488 22.9894 1.26331 18.9473" stroke="#1A1A1A" stroke-width="2.52632" stroke-linecap="round"/>
<path d="M45.4735 36.6315L51.6188 32.288M51.6188 32.288C51.6188 32.288 57.9971 26.9398 60.4949 22.9805M51.6188 32.288C55.4879 33.1153 64.0454 33.7772 67.3228 29.806M59.812 13.0525C54.3496 9.32954 54.3497 1.26306 54.3497 1.26306M59.812 13.0525C61.1777 14.2935 61.1784 20.4985 60.4949 22.9805M59.812 13.0525C61.1776 13.2594 64.0454 12.5561 64.5917 8.08855M60.4949 22.9805C62.5433 23.1873 67.4593 22.6082 70.7367 18.637" stroke="#1A1A1A" stroke-width="2.52632" stroke-linecap="round"/>
<path d="M51.7897 45.4737C51.7897 39.8927 44.155 35.3684 34.7371 35.3684C25.3192 35.3684 17.6844 39.8927 17.6844 45.4737" stroke="#1A1A1A" stroke-width="2.52632" stroke-linecap="round"/>
<path d="M30.3159 49.2633C30.3159 47.868 28.6193 46.7369 26.5264 46.7369C24.4335 46.7369 22.7369 47.868 22.7369 49.2633" stroke="#1A1A1A" stroke-width="2.52632" stroke-linecap="round"/>
<path d="M48 49.2633C48 47.868 46.3034 46.7369 44.2105 46.7369C42.1176 46.7369 40.421 47.868 40.421 49.2633" stroke="#1A1A1A" stroke-width="2.52632" stroke-linecap="round"/>
<path d="M25.2633 66.9475C25.2633 69.0403 27.5254 70.7369 30.3159 70.7369C33.1064 70.7369 35.3685 69.0403 35.3685 66.9475L35.3685 63.158" stroke="#1A1A1A" stroke-width="2.52632" stroke-linecap="round"/>
<path d="M45.4738 66.9475C45.4738 69.0403 43.2117 70.7369 40.4212 70.7369C37.6307 70.7369 35.3685 69.0403 35.3685 66.9475L35.3685 63.158" stroke="#1A1A1A" stroke-width="2.52632" stroke-linecap="round"/>
<ellipse cx="35.3685" cy="59.9999" rx="3.78947" ry="3.15789" stroke="#1A1A1A" stroke-width="2.52632" stroke-linecap="round"/>
<path d="M92.0059 49.8008C93.5918 49.8008 94.5078 48.8574 94.5078 47.1895V41.5566H102.369V47.1895C102.369 48.8574 103.285 49.8008 104.871 49.8008C106.457 49.8008 107.373 48.8574 107.373 47.1895V32.082C107.373 30.4141 106.457 29.4707 104.871 29.4707C103.285 29.4707 102.369 30.4141 102.369 32.082V37.5098H94.5078V32.082C94.5078 30.4141 93.5918 29.4707 92.0059 29.4707C90.4199 29.4707 89.4902 30.4141 89.4902 32.082V47.1895C89.4902 48.8574 90.4199 49.8008 92.0059 49.8008ZM117.217 49.8555C121.906 49.8555 124.832 47.0254 124.832 42.0488C124.832 37.168 121.865 34.2559 117.217 34.2559C112.596 34.2559 109.602 37.1816 109.602 42.0488C109.602 47.0117 112.527 49.8555 117.217 49.8555ZM117.217 46.3008C115.549 46.3008 114.523 44.7832 114.523 42.0625C114.523 39.3828 115.576 37.8105 117.217 37.8105C118.871 37.8105 119.924 39.3828 119.924 42.0625C119.924 44.7832 118.871 46.3008 117.217 46.3008ZM129.139 49.8145C130.615 49.8145 131.559 48.9395 131.559 47.2988V41.4883C131.559 39.793 132.037 39.0547 133.705 39.0137C134.607 38.9727 135.291 38.7676 135.742 38.3574C136.193 37.9609 136.426 37.3867 136.426 36.6211C136.426 35.7461 136.18 35.1309 135.701 34.7754C135.387 34.5156 134.949 34.3926 134.402 34.3926C132.912 34.3926 131.818 35.459 131.449 37.4688H131.354V36.7305C131.354 35.1582 130.424 34.2969 129.07 34.2969C127.662 34.2969 126.705 35.1582 126.705 36.7168V47.2988C126.705 48.9395 127.648 49.8145 129.139 49.8145ZM140.568 49.5H146.064C152.012 49.5 155.525 45.8223 155.525 39.5195C155.525 33.2305 152.025 29.7715 146.064 29.7715H140.568C138.982 29.7715 138.053 30.7285 138.053 32.3965V46.875C138.053 48.543 138.982 49.5 140.568 49.5ZM143.07 45.4531V33.8184H145.408C148.58 33.8184 150.426 35.8281 150.426 39.5332C150.426 43.4707 148.676 45.4531 145.408 45.4531H143.07ZM164.795 49.8555C169.484 49.8555 172.41 47.0254 172.41 42.0488C172.41 37.168 169.443 34.2559 164.795 34.2559C160.174 34.2559 157.18 37.1816 157.18 42.0488C157.18 47.0117 160.105 49.8555 164.795 49.8555ZM164.795 46.3008C163.127 46.3008 162.102 44.7832 162.102 42.0625C162.102 39.3828 163.154 37.8105 164.795 37.8105C166.449 37.8105 167.502 39.3828 167.502 42.0625C167.502 44.7832 166.449 46.3008 164.795 46.3008ZM181.256 55.1055C186.342 55.1055 189.213 52.8086 189.213 48.7754V36.7305C189.213 35.0625 188.215 34.2969 186.82 34.2969C185.426 34.2969 184.373 35.0625 184.373 36.7305V37.2363H184.277C183.607 35.5684 181.98 34.3926 179.82 34.3926C176.02 34.3926 173.832 37.0449 173.832 41.707C173.832 46.2188 176.088 48.9668 179.752 48.9668C181.939 48.9668 183.662 47.8867 184.25 46.3145H184.346V48.6934C184.346 50.375 183.184 51.4414 181.188 51.4414C179.916 51.4277 178.877 50.8535 177.852 49.9922C177.373 49.582 176.854 49.4043 176.266 49.4043C175.09 49.4043 174.352 50.1426 174.352 51.0996C174.352 51.4961 174.434 51.9062 174.666 52.3164C175.582 53.8613 177.934 55.0918 181.256 55.1055ZM181.584 45.5352C179.834 45.5352 178.795 44.1953 178.795 41.7891C178.795 39.3965 179.848 37.9199 181.584 37.9199C183.307 37.9199 184.387 39.4102 184.387 41.7891C184.387 44.1953 183.32 45.5352 181.584 45.5352Z" fill="#1A1A1A"/>
</svg>
