<svg width="22" height="20" viewBox="0 0 22 20" fill="none" xmlns="http://www.w3.org/2000/svg">
<path d="M0 9.09908C0 9.47696 0.294931 9.83641 0.792627 9.83641C1.05069 9.83641 1.26267 9.69816 1.45622 9.54147L2.65438 8.52765V17.3203C2.65438 18.6106 3.41936 19.3571 4.73733 19.3571H17.2074C18.5161 19.3571 19.2811 18.6106 19.2811 17.3203V8.46313L20.5622 9.54147C20.7465 9.69816 20.9585 9.83641 21.2166 9.83641C21.6498 9.83641 22 9.56912 22 9.12673C22 8.85023 21.9078 8.6659 21.7143 8.5C18.5169 5.81125 15.3006 3.14348 12.1198 0.435484C11.4378 -0.145161 10.5899 -0.145161 9.89862 0.435484L0.294931 8.5C0.0921659 8.6659 0 8.8871 0 9.09908ZM5.05069 17.8733C4.46083 17.8733 4.13825 17.5415 4.13825 16.9424V7.28341L10.682 1.79954C10.8848 1.61521 11.1336 1.61521 11.3364 1.79954L17.7972 7.21889V16.9424C17.7972 17.5415 17.4747 17.8733 16.894 17.8733C12.5258 17.8733 9.48527 17.8733 5.05069 17.8733Z" fill="#1A1A1A"/>
</svg>
