<svg width="46" height="44" viewBox="0 0 46 44" fill="none" xmlns="http://www.w3.org/2000/svg">
<path d="M14.2517 16.6973C12.0213 16.6973 10.2067 18.5119 10.2067 20.7423C10.4289 26.1086 18.0753 26.107 18.2967 20.7423C18.2967 18.5119 16.4821 16.6973 14.2517 16.6973ZM14.2517 22.9895C13.0125 22.9895 12.0044 21.9814 12.0044 20.7423C12.1279 17.7611 16.3759 17.762 16.4989 20.7423C16.4989 21.9814 15.4909 22.9895 14.2517 22.9895Z" fill="#7B8E98"/>
<path d="M41.5288 34.2256H38.1861C44.9437 25.9582 40.24 13.1881 29.8599 11.1469V9.77569C32.3382 9.77569 34.3544 7.75948 34.3544 5.28125C34.3704 1.60389 30.0846 -0.531148 27.1632 1.68614C24.2408 -0.531327 19.9561 1.60425 19.9721 5.28125C19.9721 7.75948 21.9883 9.7756 24.4666 9.7756V11.0731C22.0811 11.4937 19.8312 12.5123 17.9317 14.0477C15.6673 12.7292 12.4308 12.8145 10.2446 14.2389C3.60122 12.5198 -1.45206 20.189 2.73604 25.6111C0.988957 27.9902 0 30.8929 0 33.926C0 37.0651 2.55383 39.6189 5.69293 39.6189H26.9667C30.6059 39.6189 33.9338 38.2601 36.4697 36.0233H41.5288C45.1071 36.1718 45.1044 41.2695 41.5288 41.4167H26.9667C25.774 41.4641 25.7749 43.1674 26.9667 43.2144H41.5288C47.4927 42.9669 47.4881 34.4709 41.5288 34.2256ZM25.9161 8.05297C25.6965 7.88263 25.4103 7.82366 25.1414 7.89288C23.4701 8.34547 21.7458 7.01682 21.7699 5.28125C21.7695 2.81173 24.8594 1.64578 26.4893 3.49812C26.8277 3.89974 27.4987 3.89974 27.8371 3.49812C29.4675 1.64587 32.5569 2.81173 32.5565 5.28134C32.5806 7.01664 30.8562 8.34592 29.185 7.89297C28.916 7.82384 28.6299 7.88281 28.4103 8.05306C28.1906 8.22331 28.062 8.4856 28.062 8.76345V10.8958C27.4697 10.8508 26.8608 10.8423 26.2643 10.8716V8.76336C26.2644 8.48551 26.1358 8.22322 25.9161 8.05297ZM3.0155 21.1918C3.01478 18.2104 5.44915 15.7858 8.4305 15.7985C7.04037 17.3963 6.33501 19.7455 6.70643 21.9439C5.67711 22.5807 4.74586 23.3388 3.92742 24.193C3.33542 23.3094 3.0155 22.2672 3.0155 21.1918ZM5.69293 37.8211C3.54513 37.8211 1.79778 36.0738 1.79778 33.926C1.79778 29.8429 3.8547 26.0298 7.22724 23.7477C7.34644 24.0266 7.48235 24.2988 7.63471 24.5625C7.88289 24.9924 8.43256 25.1397 8.86259 24.8915C9.29253 24.6433 9.43986 24.0935 9.19159 23.6636C6.93448 19.8347 9.80391 14.8616 14.2517 14.8994C19.4182 14.8876 22.0497 21.2374 18.3831 24.8737C17.5728 25.7494 18.7797 26.9549 19.6544 26.1449C22.7314 23.1869 22.5637 17.9194 19.4482 15.1457C27.6397 8.97145 39.5969 14.9645 39.5511 25.2368C39.5511 32.1757 33.9057 37.8211 26.9667 37.8211H5.69293Z" fill="#7B8E98"/>
<path d="M6.06185 29.1814H6.06122C5.56476 29.1814 5.1626 29.5838 5.1626 30.0803C5.21006 31.2725 6.91354 31.2725 6.96073 30.0803C6.96073 29.5838 6.55821 29.1814 6.06185 29.1814Z" fill="#7B8E98"/>
<path d="M29.86 6.18016C31.0527 6.1327 31.0518 4.4294 29.86 4.38239H29.8594C28.6668 4.43003 28.6683 6.13324 29.86 6.18016Z" fill="#7B8E98"/>
<path d="M24.4669 4.38239H24.4662C23.9698 4.38239 23.5676 4.78482 23.5676 5.28127C23.6151 6.47347 25.3186 6.47347 25.3658 5.28127C25.3658 4.78482 24.9633 4.38239 24.4669 4.38239Z" fill="#7B8E98"/>
</svg>
