<svg width="46" height="46" viewBox="0 0 46 46" fill="none" xmlns="http://www.w3.org/2000/svg">
<path d="M42.9314 8.97809C41.9192 7.96603 40.694 7.16143 39.3668 6.63446C37.8315 2.67938 33.8443 -0.0481764 29.5796 0.00142044H29.578C22.5316 -0.116462 17.3082 7.12432 19.5486 13.7432L13.7463 19.5457C10.0079 18.3452 5.87837 19.3274 3.07975 22.1259C-2.27105 27.4133 -0.354117 36.6217 6.64416 39.3572C7.17095 40.684 7.97555 41.9092 8.98788 42.9217C11.0404 44.9741 13.7356 46.0002 16.4317 46C19.1272 45.9997 21.8235 44.9736 23.8756 42.9217C26.6743 40.1229 27.6562 35.9935 26.4558 32.2549L32.2581 26.4524C33.311 26.7934 34.3953 26.9598 35.4734 26.9597C38.2152 26.9596 40.9138 25.8831 42.9313 23.8655C44.9097 21.8871 45.9994 19.244 45.9998 16.423C46.0004 13.6014 44.9106 10.9573 42.9314 8.97809ZM41.6607 22.5949C39.2118 25.0439 35.5567 25.8225 32.3488 24.5783C32.0169 24.4496 31.6403 24.5289 31.3885 24.7806L24.7852 31.3842C24.5342 31.6351 24.4545 32.0103 24.5818 32.3417C25.818 35.5597 25.0421 39.2137 22.6049 41.6509C18.1766 46.1878 10.2061 44.3666 8.19065 38.3625C8.10035 38.1041 7.8972 37.9011 7.63879 37.8107C6.39402 37.3756 5.28761 36.6799 4.35031 35.7427C-2.19962 28.9081 4.78527 18.2234 13.6594 21.4195C13.9908 21.5468 14.3661 21.4672 14.6169 21.2161L21.2202 14.6125C21.4719 14.3609 21.5513 13.9842 21.4226 13.6523C18.1544 4.85724 29.014 -2.22532 35.7525 4.3407C36.6761 5.26435 37.3912 6.40148 37.8205 7.62918C37.9108 7.8875 38.1139 8.09047 38.3721 8.18077C44.4043 10.2521 46.1802 18.113 41.6607 22.5949Z" fill="#7B8E98"/>
<path d="M40.3842 11.5199C39.5695 10.7052 38.5577 10.1022 37.4582 9.77593C37.3896 9.75554 37.3229 9.73649 37.2579 9.7178C36.5146 9.50351 36.4926 9.48159 36.2783 8.73835C36.2596 8.67339 36.2405 8.60664 36.2202 8.53799C35.894 7.4385 35.2909 6.42671 34.4761 5.61205C33.1704 4.306 31.4218 3.58963 29.5569 3.59556C27.7013 3.60113 25.9662 4.31732 24.6715 5.61205C23.3921 6.89132 22.6667 8.57815 22.6288 10.3617C22.5973 11.8423 23.0396 13.2776 23.8866 14.4829L14.487 23.8831C11.7696 21.9799 8.02203 22.262 5.61649 24.6674C2.92694 27.248 2.92703 31.8913 5.61649 34.4718C6.43161 35.2869 7.4434 35.89 8.5428 36.216C8.61108 36.2362 8.67748 36.2553 8.74208 36.2738C9.11703 36.3812 9.30292 36.4386 9.43033 36.566C9.55774 36.6934 9.61506 36.8793 9.72261 37.2542C9.74112 37.3189 9.76017 37.3853 9.78047 37.4537C11.2497 42.4613 17.6542 44.0909 21.3291 40.3799C23.7346 37.9744 24.0167 34.2268 22.1134 31.5095L31.5133 22.1092C32.7187 22.9562 34.1545 23.4001 35.6346 23.3671C37.4181 23.3293 39.105 22.6038 40.3842 21.3245C41.6791 20.0298 42.3952 18.2948 42.4008 16.4391C42.4064 14.5729 41.6903 12.826 40.3842 11.5199ZM39.1136 20.0537C37.1474 22.0197 34.1092 22.0999 32.0463 20.2398C31.691 19.9196 31.1474 19.9335 30.8093 20.2718L20.2765 30.805C19.9384 31.1431 19.9244 31.6869 20.2446 32.042C22.0742 34.071 21.9925 37.1752 20.0585 39.1091C17.3603 41.8541 12.5664 40.6353 11.5034 36.9428C11.4847 36.8797 11.4672 36.8184 11.4501 36.7589C11.3089 36.2663 11.1629 35.757 10.7012 35.2953C10.2394 34.8336 9.72998 34.6876 9.23733 34.5463C9.17767 34.5293 9.11649 34.5116 9.05359 34.493C8.24046 34.2519 7.49129 33.8052 6.88723 33.2011C4.89482 31.2894 4.89482 27.8498 6.88723 25.938C8.82106 24.0042 11.9254 23.9224 13.9544 25.752C14.3096 26.0721 14.8533 26.0582 15.1915 25.72L25.7243 15.1868C26.0624 14.8487 26.0765 14.3049 25.7562 13.9497C23.8962 11.8869 23.9762 8.84878 25.9424 6.8827C26.8991 5.92589 28.1849 5.39668 29.5626 5.39254C31.8084 5.35283 33.8832 6.90686 34.4975 9.04914C34.5163 9.11249 34.5339 9.17403 34.5511 9.23387C34.6923 9.72616 34.8383 10.2352 35.2998 10.6966C35.7612 11.158 36.2703 11.304 36.7626 11.4452C36.8225 11.4624 36.884 11.4801 36.9472 11.4988C37.7607 11.7402 38.5099 12.187 39.1137 12.7907C40.0788 13.7559 40.6081 15.0496 40.6039 16.4337C40.5996 17.8113 40.0704 19.097 39.1136 20.0537Z" fill="#7B8E98"/>
<path d="M29.9295 9.00742L29.929 9.00697C29.5782 8.65611 29.0095 8.65638 28.6585 9.00724C28.0914 9.56583 28.5083 10.55 29.2941 10.5413C30.08 10.5499 30.4968 9.56592 29.9295 9.00742Z" fill="#7B8E98"/>
<path d="M37.0435 14.5977C36.6927 14.2468 36.124 14.247 35.773 14.598C35.2059 15.1567 35.6228 16.1407 36.4086 16.1321C37.1944 16.1407 37.6113 15.1567 37.044 14.5982L37.0435 14.5977Z" fill="#7B8E98"/>
<path d="M30.9815 15.3948L30.981 15.3943C30.067 14.6276 28.9227 15.8884 29.7727 16.7244C30.1389 17.0575 30.7073 17.032 31.0419 16.664C31.3757 16.2968 31.3486 15.7285 30.9815 15.3948Z" fill="#7B8E98"/>
<path d="M24.2432 19.588L24.2427 19.5875C23.3288 18.8208 22.1845 20.0816 23.0344 20.9177C23.4006 21.2507 23.969 21.2252 24.3036 20.8572C24.6375 20.49 24.6104 19.9217 24.2432 19.588Z" fill="#7B8E98"/>
<path d="M21.952 25.5565C21.6182 25.1894 21.0502 25.1625 20.6829 25.4963C20.3157 25.8301 20.2889 26.3986 20.6227 26.7657C20.9573 27.1337 21.5258 27.1593 21.892 26.8262C22.2592 26.4924 22.2862 25.9241 21.9524 25.557L21.952 25.5565Z" fill="#7B8E98"/>
<path d="M14.5906 28.2284L14.5901 28.228C13.6762 27.4612 12.5319 28.7221 13.3818 29.5581C13.748 29.8912 14.3165 29.8656 14.6511 29.4976C14.9848 29.1305 14.9578 28.5622 14.5906 28.2284Z" fill="#7B8E98"/>
<path d="M16.6546 34.7378C16.3037 34.3869 15.7351 34.3871 15.3841 34.738C14.817 35.2967 15.2339 36.2807 16.0197 36.2721C16.8055 36.2807 17.2224 35.2967 16.6551 34.7382L16.6546 34.7378Z" fill="#7B8E98"/>
<path d="M9.2818 29.1468C8.93094 28.7959 8.36228 28.7961 8.01133 29.147C7.4442 29.7056 7.8611 30.6898 8.64692 30.6811C9.43275 30.6898 9.84956 29.7058 9.28225 29.1473L9.2818 29.1468Z" fill="#7B8E98"/>
</svg>
