<svg width="23" height="24" viewBox="0 0 23 24" fill="none" xmlns="http://www.w3.org/2000/svg">
<path d="M22.1551 13.893C22.8711 7.86602 21.8111 4.06102 19.8991 2.34002L19.9001 2.33902C16.8141 -0.599975 6.39208 -1.03498 2.70008 2.47102C1.04208 4.18602 0.458079 6.70302 0.394079 9.81903C0.330079 12.936 0.254079 18.775 5.69508 20.359H5.70008L5.69508 22.778C5.69508 22.778 5.65808 23.758 6.28408 23.955C7.00008 24.187 7.32408 23.732 9.55108 21.072C13.2751 21.395 16.1351 20.655 16.4601 20.547C17.2121 20.295 21.4671 19.732 22.1551 13.893ZM9.91808 19.37C9.91808 19.37 7.56108 22.309 6.82808 23.072C6.58808 23.32 6.32508 23.297 6.32908 22.805C6.32908 22.482 6.34708 18.789 6.34708 18.789C1.73408 17.467 2.00608 12.495 2.05608 9.89402C2.10608 7.29202 2.58208 5.16102 3.98608 3.72602C7.22508 0.689025 16.3621 1.36802 18.6901 3.55602C21.5361 6.07902 20.5231 13.207 20.5291 13.45C19.9441 18.324 16.4961 18.633 15.8621 18.844C15.5911 18.934 13.0761 19.581 9.91808 19.37Z" fill="#1A1A1A"/>
<path d="M11.2214 4.29639C10.8364 4.29639 10.8364 4.89639 11.2214 4.90139C14.2084 4.92439 16.6684 7.00639 16.6954 10.8254C16.6954 11.2284 17.2854 11.2234 17.2804 10.8204H17.2794C17.2474 6.70539 14.5614 4.31939 11.2214 4.29639Z" fill="#1A1A1A"/>
<path d="M15.1519 10.193C15.1429 10.591 15.7319 10.61 15.7369 10.207C15.7859 7.93804 14.3869 6.06904 11.7579 5.87204C11.3729 5.84404 11.3329 6.44904 11.7169 6.47704C13.9969 6.65004 15.1979 8.20604 15.1519 10.193Z" fill="#1A1A1A"/>
<path d="M14.5202 12.7746C14.0262 12.4886 13.5232 12.6666 13.3152 12.9476L12.8802 13.5106C12.6592 13.7966 12.2462 13.7586 12.2462 13.7586C9.23224 12.9616 8.42624 9.80759 8.42624 9.80759C8.42624 9.80759 8.38924 9.38059 8.66524 9.15159L9.20924 8.70159C9.48124 8.48559 9.65324 7.96559 9.37624 7.45459C8.63624 6.11759 8.13924 5.65659 7.88624 5.30259C7.62024 4.96959 7.22024 4.89459 6.80424 5.11959H6.79524C5.93024 5.62559 4.98324 6.57259 5.28624 7.54759C5.80324 8.57559 6.75324 11.8526 9.78124 14.3286C11.2042 15.4996 13.4562 16.6996 14.4122 16.9766L14.4212 16.9906C15.3632 17.3046 16.2792 16.3206 16.7682 15.4296V15.4226C16.9852 14.9916 16.9132 14.5836 16.5962 14.3166C16.0342 13.7686 15.1862 13.1636 14.5202 12.7746Z" fill="#1A1A1A"/>
<path d="M12.1684 8.10417C13.1294 8.16017 13.5954 8.66217 13.6454 9.69317C13.6634 10.0962 14.2484 10.0682 14.2304 9.66517C14.1664 8.31917 13.4644 7.56917 12.2004 7.49917C11.8154 7.47617 11.7794 8.08117 12.1684 8.10417Z" fill="#1A1A1A"/>
</svg>
