<svg width="48" height="48" viewBox="0 0 48 48" fill="none" xmlns="http://www.w3.org/2000/svg">
<path d="M16.4213 24.842L12.6317 21.8947M12.6317 21.8947C12.6317 21.8947 8.69836 18.2656 7.15799 15.5789M12.6317 21.8947C10.2457 22.4561 4.96851 22.9052 2.94746 20.2105M7.57916 8.84204C10.9476 6.31573 10.9476 0.842041 10.9476 0.842041M7.57916 8.84204C6.73693 9.68415 6.7365 13.8947 7.15799 15.5789M7.57916 8.84204C6.73701 8.98239 4.96851 8.5052 4.63167 5.47362M7.15799 15.5789C5.89483 15.7192 2.86325 15.3263 0.842194 12.6315" stroke="#1A1A1A" stroke-width="1.68421" stroke-linecap="round"/>
<path d="M30.3157 24.421L34.4125 21.5253M34.4125 21.5253C34.4125 21.5253 38.6647 17.9599 40.33 15.3203M34.4125 21.5253C36.9919 22.0769 42.697 22.5181 44.8819 19.8707M39.8747 8.70169C36.2331 6.2197 36.2331 0.842041 36.2331 0.842041M39.8747 8.70169C40.7852 9.52902 40.7856 13.6657 40.33 15.3203M39.8747 8.70169C40.7851 8.83958 42.697 8.37076 43.0611 5.39236M40.33 15.3203C41.6955 15.4582 44.9729 15.0721 47.1578 12.4247" stroke="#1A1A1A" stroke-width="1.68421" stroke-linecap="round"/>
<path d="M34.5265 30.3158C34.5265 26.5952 29.4367 23.579 23.1581 23.579C16.8795 23.579 11.7896 26.5952 11.7896 30.3158" stroke="#1A1A1A" stroke-width="1.68421" stroke-linecap="round"/>
<path d="M20.2106 32.8422C20.2106 31.912 19.0795 31.158 17.6843 31.158C16.289 31.158 15.158 31.912 15.158 32.8422" stroke="#1A1A1A" stroke-width="1.68421" stroke-linecap="round"/>
<path d="M32 32.8422C32 31.912 30.8689 31.158 29.4737 31.158C28.0784 31.158 26.9474 31.912 26.9474 32.8422" stroke="#1A1A1A" stroke-width="1.68421" stroke-linecap="round"/>
<path d="M16.8422 44.6316C16.8422 46.0269 18.3503 47.158 20.2106 47.158C22.0709 47.158 23.579 46.0269 23.579 44.6316L23.579 42.1053" stroke="#1A1A1A" stroke-width="1.68421" stroke-linecap="round"/>
<path d="M30.3159 44.6316C30.3159 46.0269 28.8078 47.158 26.9474 47.158C25.0871 47.158 23.579 46.0269 23.579 44.6316L23.579 42.1053" stroke="#1A1A1A" stroke-width="1.68421" stroke-linecap="round"/>
<ellipse cx="23.579" cy="40" rx="2.52632" ry="2.10526" stroke="#1A1A1A" stroke-width="1.68421" stroke-linecap="round"/>
</svg>
