<svg width="22" height="21" viewBox="0 0 22 21" fill="none" xmlns="http://www.w3.org/2000/svg">
<path d="M7.19121 3.29096C7.19121 2.21393 5.88155 1.34082 4.26601 1.34082C2.65046 1.34082 1.3408 2.21393 1.3408 3.29096" stroke="#1A1A1A" stroke-width="1.8" stroke-linecap="round"/>
<path d="M20.842 3.29096C20.842 2.21393 19.5323 1.34082 17.9168 1.34082C16.3012 1.34082 14.9916 2.21393 14.9916 3.29096" stroke="#1A1A1A" stroke-width="1.8" stroke-linecap="round"/>
<path d="M3.291 16.2218C3.291 17.8373 5.03721 19.147 7.19128 19.147C9.34534 19.147 11.0916 17.8373 11.0916 16.2218L11.0916 13.2966" stroke="#1A1A1A" stroke-width="1.8" stroke-linecap="round"/>
<path d="M18.8921 16.2218C18.8921 17.8373 17.1459 19.147 14.9918 19.147C12.8378 19.147 11.0916 17.8373 11.0916 16.2218L11.0916 13.2966" stroke="#1A1A1A" stroke-width="1.8" stroke-linecap="round"/>
<ellipse cx="11.0915" cy="10.8586" rx="2.92521" ry="2.43767" stroke="#1A1A1A" stroke-width="1.8" stroke-linecap="round"/>
</svg>
