<svg width="20" height="12" viewBox="0 0 20 12" fill="none" xmlns="http://www.w3.org/2000/svg">
<path fill-rule="evenodd" clip-rule="evenodd" d="M19.0741 1.88907C19.5906 1.88907 20 1.4584 20 0.939641C20 0.420881 19.6004 0 19.0741 0H0.925926C0.409357 0 0 0.420881 0 0.939641C0 1.4584 0.409357 1.88907 0.925926 1.88907H19.0741ZM15.078 6.87928C15.6043 6.87928 16.0039 6.4584 16.0039 5.93964C16.0039 5.41109 15.6043 5 15.078 5H0.925926C0.409357 5 0 5.42088 0 5.93964C0 6.44861 0.409357 6.87928 0.925926 6.87928H15.078ZM11.1306 11.8891C11.6472 11.8891 12.0565 11.4584 12.0565 10.9396C12.0565 10.4209 11.6472 10 11.1306 10H0.925926C0.409357 10 0 10.4209 0 10.9396C0 11.4584 0.409357 11.8891 0.925926 11.8891H11.1306Z" fill="#1A1A1A"/>
</svg>
