<svg width="20" height="16" viewBox="0 0 20 16" fill="none" xmlns="http://www.w3.org/2000/svg">
<path fill-rule="evenodd" clip-rule="evenodd" d="M13.5547 0.5C12.6746 0.5 11.9436 1.14019 11.8165 1.97246L11.282 2.49873C10.3518 3.41469 8.98176 3.96154 7.61719 3.96154H4.10156C3.3377 3.96154 2.68641 4.44388 2.44453 5.11538H2.34375C1.05141 5.11538 0 6.15062 0 7.42308C0 8.69554 1.05141 9.73077 2.34375 9.73077H2.44453C2.62137 10.2217 3.01703 10.6113 3.51562 10.7854V13.7692C3.51562 14.7236 4.30422 15.5 5.27348 15.5C6.2427 15.5 7.03125 14.7236 7.03125 13.7692V10.8846H7.61719C8.98172 10.8846 10.3517 11.4315 11.282 12.3474L11.8165 12.8737C11.9436 13.7059 12.6746 14.3462 13.5547 14.3462C14.5239 14.3462 15.3125 13.5697 15.3125 12.6154V2.23077C15.3125 1.27642 14.5239 0.5 13.5547 0.5ZM2.34375 8.57692C1.69758 8.57692 1.17188 8.05931 1.17188 7.42308C1.17188 6.78685 1.69758 6.26923 2.34375 6.26923V8.57692ZM5.27344 14.3462C5.59652 14.3462 5.85938 14.0873 5.85938 13.7692V10.8846H4.6875V13.7692C4.6875 14.0873 4.95035 14.3462 5.27344 14.3462ZM7.03125 9.73077H4.10156C3.77848 9.73077 3.51562 9.47196 3.51562 9.15385V5.69231C3.51562 5.37419 3.77848 5.11538 4.10156 5.11538H7.03125V9.73077ZM8.19922 9.75692C9.5343 9.87642 10.807 10.4005 11.7969 11.2441V3.60204C10.807 4.44562 9.5343 4.96973 8.19926 5.08919L8.19922 9.75692ZM14.1406 12.6154C14.1406 12.9335 13.8778 13.1923 13.5547 13.1923H13.5547C13.2316 13.1923 12.9688 12.9335 12.9688 12.6154V2.23077C12.9688 1.91265 13.2316 1.65385 13.5547 1.65385C13.8778 1.65385 14.1406 1.91265 14.1406 2.23077V12.6154ZM18.6565 4.13054C18.4277 3.90527 18.0567 3.90527 17.8279 4.13054L16.656 5.28438C16.4271 5.50969 16.4271 5.87496 16.656 6.10027C16.8848 6.32558 17.2558 6.32554 17.4846 6.10027L18.6565 4.94642C18.8853 4.72112 18.8853 4.35585 18.6565 4.13054ZM17.6562 7.42308H19.4141C19.7377 7.42308 20 7.68139 20 8C20 8.31862 19.7377 8.57692 19.4141 8.57692H17.6562C17.3327 8.57692 17.0703 8.31862 17.0703 8C17.0703 7.68139 17.3327 7.42308 17.6562 7.42308ZM17.4846 9.89977L18.6565 11.0536C18.8854 11.2789 18.8854 11.6442 18.6565 11.8695C18.4277 12.0948 18.0567 12.0948 17.8279 11.8695L16.656 10.7157C16.4271 10.4903 16.4271 10.125 16.656 9.89977C16.8848 9.6745 17.2559 9.6745 17.4846 9.89977Z" fill="#7B8E98"/>
</svg>
