<svg width="8" height="14" viewBox="0 0 8 14" fill="none" xmlns="http://www.w3.org/2000/svg">
<path fill-rule="evenodd" clip-rule="evenodd" d="M0.932419 14C0.407444 14 0 13.5896 0 13.0688C0 12.8083 0.101861 12.5716 0.282076 12.3901L5.7669 6.99211L0.282076 1.60992C0.101861 1.42841 0 1.18377 0 0.931229C0 0.410372 0.407444 0 0.932419 0C1.18315 0 1.40255 0.0947012 1.57493 0.26832L7.67091 6.26607C7.8903 6.47125 8 6.72379 8 7C8 7.27621 7.8903 7.51297 7.67875 7.72604L1.58276 13.7317C1.40255 13.9053 1.18315 14 0.932419 14Z" fill="#1A1A1A"/>
</svg>
