<svg width="20" height="20" viewBox="0 0 20 20" fill="none" xmlns="http://www.w3.org/2000/svg">
<path fill-rule="evenodd" clip-rule="evenodd" d="M19.8107 9.53982L18.1136 7.82596L18.7264 5.49311C18.8175 5.14619 18.6122 4.79061 18.2663 4.69612L15.9395 4.06045L15.3039 1.73374C15.2093 1.38776 14.8538 1.18245 14.5069 1.27358L12.1741 1.88647L10.4602 0.189287C10.2053 -0.0630956 9.79468 -0.0630956 9.53984 0.189287L7.82597 1.88647L5.49312 1.27362C5.14613 1.18249 4.79066 1.3878 4.69613 1.73378L4.06046 4.06049L1.73374 4.69616C1.38776 4.79069 1.18245 5.14627 1.27358 5.49315L1.88644 7.82599L0.189287 9.53982C-0.0630957 9.7947 -0.0630957 10.2053 0.189287 10.4601L1.88648 12.174L1.27362 14.5068C1.18249 14.8538 1.3878 15.2093 1.73378 15.3038L4.0605 15.9395L4.69617 18.2662C4.7907 18.6122 5.1462 18.8175 5.49316 18.7264L7.82601 18.1135L9.53988 19.8107C9.6673 19.9369 9.83367 20 10 20C10.1664 20 10.3328 19.9369 10.4602 19.8107L12.1741 18.1135L14.5069 18.7264C14.8539 18.8174 15.2094 18.6122 15.3039 18.2662L15.9396 15.9395L18.2663 15.3038C18.6123 15.2093 18.8176 14.8537 18.7264 14.5068L18.1136 12.174L19.8107 10.4601C20.0631 10.2053 20.0631 9.7947 19.8107 9.53982ZM16.9215 11.5189C16.7588 11.6833 16.6949 11.9215 16.7537 12.1452L17.2968 14.2128L15.2347 14.7762C15.0115 14.8371 14.8371 15.0115 14.7762 15.2347L14.2128 17.2968L12.1452 16.7537C11.9214 16.6949 11.6833 16.7587 11.5189 16.9215L10 18.4256L8.48105 16.9215C8.35703 16.7987 8.19105 16.7322 8.02086 16.7322C7.9655 16.7322 7.90968 16.7393 7.85476 16.7537L5.78718 17.2968L5.22382 15.2347C5.16288 15.0116 4.98851 14.8372 4.76531 14.7762L2.7032 14.2129L3.24632 12.1453C3.30511 11.9215 3.24128 11.6834 3.07847 11.519L1.57437 10L3.07847 8.48107C3.24128 8.31666 3.30511 8.07853 3.24632 7.85474L2.7032 5.78709L4.76531 5.22373C4.98847 5.1628 5.16285 4.98842 5.22382 4.76522L5.78718 2.70311L7.85476 3.24624C8.07855 3.30506 8.31668 3.2412 8.48109 3.07838L10 1.57428L11.5189 3.07838C11.6834 3.24112 11.9214 3.3051 12.1453 3.24624L14.2129 2.70311L14.7762 4.76522C14.8371 4.98838 15.0115 5.16276 15.2347 5.22373L17.2968 5.78709L16.7537 7.85467C16.6949 8.07842 16.7588 8.31658 16.9216 8.48099L18.4257 9.99994L16.9215 11.5189ZM7.38418 5.20424C6.18218 5.20424 5.20429 6.18213 5.20429 7.38412C5.20429 8.58611 6.18218 9.564 7.38418 9.564C8.58617 9.564 9.56406 8.58611 9.56406 7.38412C9.56406 6.18213 8.58617 5.20424 7.38418 5.20424ZM7.38418 8.25607C6.90339 8.25607 6.51222 7.86486 6.51222 7.38412C6.51222 6.90334 6.90339 6.51217 7.38418 6.51217C7.86496 6.51217 8.25613 6.90334 8.25613 7.38412C8.25613 7.8649 7.86496 8.25607 7.38418 8.25607ZM10.436 12.6158C10.436 11.4138 11.4139 10.436 12.6159 10.436C13.8179 10.436 14.7958 11.4138 14.7958 12.6158C14.7958 13.8178 13.8179 14.7957 12.6159 14.7957C11.4139 14.7957 10.436 13.8178 10.436 12.6158ZM11.7439 12.6158C11.7439 13.0966 12.1351 13.4878 12.6159 13.4878C13.0966 13.4878 13.4879 13.0967 13.4879 12.6158C13.4879 12.135 13.0967 11.7439 12.6159 11.7439C12.1351 11.7439 11.7439 12.135 11.7439 12.6158ZM12.5894 6.48572C12.8448 6.23033 13.2589 6.23033 13.5143 6.48572C13.7696 6.74111 13.7696 7.15518 13.5142 7.41057L7.4105 13.5142C7.28285 13.642 7.11543 13.7058 6.94812 13.7058C6.78082 13.7058 6.61343 13.6419 6.48574 13.5142C6.23035 13.2588 6.23035 12.8448 6.48574 12.5894L12.5894 6.48572Z" fill="#7B8E98"/>
</svg>
