<svg width="28" height="28" viewBox="0 0 28 28" fill="none" xmlns="http://www.w3.org/2000/svg">
<path fill-rule="evenodd" clip-rule="evenodd" d="M14.5702 0.666656C18.4173 0.666656 21.5674 3.74667 21.7187 7.56343L21.7244 7.85103L21.7236 8.71352L22.7308 8.71464C23.6567 8.71464 24.4308 9.37596 24.6002 10.2482L24.6258 10.4253L24.6346 10.6073V14.1316C24.6346 15.1133 23.8777 15.9235 22.9138 16.0154L22.7308 16.0241L20.6777 16.024L20.5361 16.2363C20.0685 16.8991 19.4835 17.5225 18.8161 18.0824L18.4757 18.3569L18.2369 18.5342L18.2396 18.5972C18.3155 19.5313 18.95 20.2555 19.8276 20.4129L20.0063 20.4368L20.1909 20.4448C24.9028 20.4448 27.3333 22.0481 27.3333 26.2823C27.3333 26.8628 26.86 27.3333 26.276 27.3333C25.6923 27.3333 25.2189 26.8627 25.2189 26.2823C25.2189 23.3155 23.8412 22.5465 20.1909 22.5465C19.6261 22.5465 19.0769 22.4311 18.57 22.2114L18.4688 22.1626L14.3611 25.1211C14.0751 25.3361 13.7028 25.3893 13.3733 25.274L13.2351 25.2142L13.1044 25.1336L9.17851 22.3066L9.02907 22.3606C8.83346 22.4219 8.63307 22.4684 8.42928 22.4995L8.12119 22.5347L7.80899 22.5465C4.15884 22.5465 2.78113 23.3155 2.78113 26.2823C2.78113 26.8627 2.30775 27.3333 1.724 27.3333C1.14015 27.3333 0.666656 26.8628 0.666656 26.2823C0.666656 22.0482 3.09727 20.4448 7.80899 20.4448C8.77201 20.4448 9.58602 19.7421 9.74127 18.8179L9.74491 18.7869L9.51281 18.6297C8.66964 18.0301 7.93539 17.329 7.36919 16.564L7.137 16.2323L7.00775 16.024L5.26918 16.0241C4.34333 16.0241 3.56916 15.3628 3.39982 14.4906L3.37415 14.3135L3.36541 14.1316V10.6073C3.36541 9.6254 4.12223 8.81524 5.08615 8.72332L5.26918 8.71464L6.27539 8.71352L6.27575 7.85083C6.27575 4.09729 9.17691 0.988107 12.8509 0.690046L13.1425 0.672394L13.4297 0.666656H14.5702ZM16.3883 19.9474L16.3007 19.693L16.2861 19.7015C15.3745 20.13 14.5174 20.3742 13.9025 20.3742C13.3829 20.3742 12.7194 20.2282 12.0052 19.9622L11.6549 19.8239L11.5627 20.068C11.4525 20.3272 11.3153 20.5742 11.1537 20.8049L10.991 21.0194L13.7229 22.9862L16.8157 20.7602L16.801 20.7388C16.6345 20.4907 16.4961 20.2255 16.3883 19.9474ZM13.8638 7.72229L13.7307 7.825C12.2177 8.92059 10.3734 9.48005 8.48079 9.38771L8.38819 9.38001L8.37809 14.007C8.65301 14.8799 9.28359 15.7268 10.1648 16.4737L10.4365 16.6947C11.6415 17.6356 13.0983 18.2727 13.9024 18.2727C14.7256 18.2727 16.3699 17.4532 17.648 16.3158L17.9021 16.0809L17.9577 16.024H16.2374L16.2079 16.0599C15.9547 16.3249 15.6157 16.4959 15.2456 16.5394L15.0582 16.5503C14.1822 16.5503 13.472 15.8443 13.472 14.9735C13.472 14.1024 14.1821 13.3963 15.0582 13.3963C15.5003 13.3963 15.9125 13.5776 16.2079 13.8869L16.2388 13.9224H19.6095V9.35906L19.5145 9.37054C17.5519 9.52757 15.6021 8.98357 14.0125 7.83606L13.8638 7.72229ZM6.67385 11.6134C6.67385 11.1732 6.31706 10.8164 5.87694 10.8164C5.43682 10.8164 5.08003 11.1732 5.08003 11.6134V13.1242C5.08003 13.5643 5.43682 13.9211 5.87694 13.9211C6.31706 13.9211 6.67385 13.5643 6.67385 13.1242V11.6134ZM22.917 11.612C22.917 11.1726 22.5608 10.8164 22.1214 10.8164C21.682 10.8164 21.3258 11.1726 21.3258 11.612V13.1255C21.3258 13.5649 21.682 13.9211 22.1214 13.9211C22.5608 13.9211 22.917 13.5649 22.917 13.1255V11.612ZM16.8407 3.31478L16.8145 3.42039C16.5401 4.39821 16.0864 5.30836 15.4789 6.11281L15.3852 6.22823L15.4358 6.26447C16.6268 7.05798 18.0607 7.41294 19.4898 7.26596L19.5739 7.25482L19.5705 7.21592C19.3713 5.61996 18.427 4.21881 17.0584 3.43196L16.8407 3.31478ZM14.5702 2.76864H13.4298C10.9419 2.76864 8.85963 4.59998 8.45948 7.00938L8.42114 7.28103L8.45211 7.28421C11.2915 7.48069 13.8933 5.69438 14.7299 3.027L14.8017 2.77401L14.5702 2.76864Z" fill="#7B8E98"/>
<path d="M21.7187 7.56343L21.9687 7.55848L21.9685 7.55352L21.7187 7.56343ZM21.7244 7.85103L21.9745 7.85128L21.9744 7.84608L21.7244 7.85103ZM21.7236 8.71352L21.4736 8.71327L21.4734 8.96324L21.7233 8.96352L21.7236 8.71352ZM22.7308 8.71464L22.7305 8.96464H22.7308V8.71464ZM24.6002 10.2482L24.8479 10.2123L24.8456 10.2005L24.6002 10.2482ZM24.6258 10.4253L24.8755 10.4133L24.875 10.4013L24.8732 10.3895L24.6258 10.4253ZM24.6346 10.6073H24.8849L24.8843 10.5953L24.6346 10.6073ZM22.9138 16.0154L22.9257 16.2654L22.9375 16.2643L22.9138 16.0154ZM22.7308 16.0241L22.7308 16.2744L22.7426 16.2738L22.7308 16.0241ZM20.6777 16.024L20.6777 15.774L20.544 15.774L20.4698 15.8852L20.6777 16.024ZM20.5361 16.2363L20.7405 16.3804L20.7441 16.375L20.5361 16.2363ZM18.8161 18.0824L18.9731 18.277L18.9768 18.2739L18.8161 18.0824ZM18.4757 18.3569L18.6249 18.5578L18.6327 18.5515L18.4757 18.3569ZM18.2369 18.5342L18.0879 18.3334L17.9816 18.4124L17.9872 18.5447L18.2369 18.5342ZM18.2396 18.5972L17.9897 18.6078L17.9904 18.6175L18.2396 18.5972ZM19.8276 20.4129L19.7834 20.6592L19.7946 20.6607L19.8276 20.4129ZM20.0063 20.4368L19.9732 20.6846L19.9843 20.686L19.9954 20.6865L20.0063 20.4368ZM20.1909 20.4448L20.1799 20.6948H20.1909V20.4448ZM18.57 22.2114L18.4612 22.4367L18.4706 22.4408L18.57 22.2114ZM18.4688 22.1626L18.5775 21.9374L18.4435 21.8727L18.3227 21.9597L18.4688 22.1626ZM14.3611 25.1211L14.215 24.9182L14.2109 24.9213L14.3611 25.1211ZM13.3733 25.274L13.2741 25.5034L13.2823 25.507L13.2907 25.5099L13.3733 25.274ZM13.2351 25.2142L13.104 25.427L13.1193 25.4365L13.1359 25.4436L13.2351 25.2142ZM13.1044 25.1336L12.9583 25.3365L12.9656 25.3418L12.9733 25.3465L13.1044 25.1336ZM9.17851 22.3066L9.3246 22.1037L9.21755 22.0266L9.0935 22.0715L9.17851 22.3066ZM9.02907 22.3606L9.10389 22.5994L9.11409 22.5957L9.02907 22.3606ZM8.42928 22.4995L8.45764 22.7481L8.46704 22.7467L8.42928 22.4995ZM8.12119 22.5347L8.13063 22.7845L8.14011 22.7842L8.14953 22.7831L8.12119 22.5347ZM7.80899 22.5465V22.7967L7.81844 22.7963L7.80899 22.5465ZM9.74127 18.8179L9.98811 18.8593L9.98956 18.8471L9.74127 18.8179ZM9.74491 18.7869L9.9932 18.8161L10.011 18.6651L9.88507 18.5799L9.74491 18.7869ZM9.51281 18.6297L9.36788 18.8335L9.37265 18.8367L9.51281 18.6297ZM7.36919 16.564L7.16432 16.7074L7.16825 16.7127L7.36919 16.564ZM7.137 16.2323L6.92424 16.3643L6.9322 16.3757L7.137 16.2323ZM7.00775 16.024L7.22019 15.8922L7.14685 15.774L7.00774 15.774L7.00775 16.024ZM5.26918 16.0241V16.2741H5.2692L5.26918 16.0241ZM3.39982 14.4906L3.15212 14.5265L3.1544 14.5383L3.39982 14.4906ZM3.37415 14.3135L3.12444 14.3255L3.12501 14.3375L3.12673 14.3494L3.37415 14.3135ZM3.36541 14.1316H3.11512L3.1157 14.1436L3.36541 14.1316ZM5.08615 8.72332L5.07429 8.47332L5.06242 8.47445L5.08615 8.72332ZM5.26918 8.71464L5.2689 8.46437L5.25734 8.46492L5.26918 8.71464ZM6.27539 8.71352L6.27566 8.96352L6.52528 8.96324L6.52539 8.71362L6.27539 8.71352ZM6.27575 7.85083L6.52575 7.85093V7.85083H6.27575ZM12.8509 0.690046L12.8358 0.44045L12.8307 0.440864L12.8509 0.690046ZM13.1425 0.672394L13.1375 0.422239L13.1274 0.422851L13.1425 0.672394ZM13.4297 0.666656V0.416607L13.4247 0.416706L13.4297 0.666656ZM16.3883 19.9474L16.1518 20.0289L16.1552 20.0378L16.3883 19.9474ZM16.3007 19.693L16.537 19.6116L16.4378 19.3235L16.1746 19.4771L16.3007 19.693ZM16.2861 19.7015L16.3925 19.9277L16.4025 19.923L16.4122 19.9174L16.2861 19.7015ZM12.0052 19.9622L11.9134 20.1948L11.918 20.1965L12.0052 19.9622ZM11.6549 19.8239L11.7467 19.5914L11.5106 19.4982L11.421 19.7356L11.6549 19.8239ZM11.5627 20.068L11.793 20.1659L11.7966 20.1563L11.5627 20.068ZM11.1537 20.8049L11.353 20.9561L11.3585 20.9483L11.1537 20.8049ZM10.991 21.0194L10.7918 20.8684L10.6369 21.0726L10.8449 21.2223L10.991 21.0194ZM13.7229 22.9862L13.5768 23.1891L13.7229 23.2942L13.8689 23.1891L13.7229 22.9862ZM16.8157 20.7602L16.9617 20.9631L17.1603 20.8202L17.0217 20.6186L16.8157 20.7602ZM16.801 20.7388L16.5934 20.8781L16.595 20.8804L16.801 20.7388ZM13.8638 7.72229L14.0157 7.52373L13.8632 7.40701L13.7111 7.52437L13.8638 7.72229ZM13.7307 7.825L13.8774 8.02758L13.8835 8.02292L13.7307 7.825ZM8.48079 9.38771L8.46007 9.637L8.4686 9.63741L8.48079 9.38771ZM8.38819 9.38001L8.4089 9.13087L8.13879 9.10843L8.13819 9.37947L8.38819 9.38001ZM8.37809 14.007L8.12809 14.0064L8.12801 14.0451L8.13964 14.082L8.37809 14.007ZM10.1648 16.4737L10.0031 16.6645L10.007 16.6677L10.1648 16.4737ZM10.4365 16.6947L10.2788 16.8887L10.2827 16.8918L10.4365 16.6947ZM17.648 16.3158L17.8142 16.5025L17.8177 16.4994L17.648 16.3158ZM17.9021 16.0809L18.072 16.2648L18.081 16.2556L17.9021 16.0809ZM17.9577 16.024L18.1366 16.1987L18.5514 15.774H17.9577V16.024ZM16.2374 16.024V15.774H16.1193L16.0443 15.8652L16.2374 16.024ZM16.2079 16.0599L16.3887 16.2326L16.3951 16.2259L16.401 16.2187L16.2079 16.0599ZM15.2456 16.5394L15.2602 16.789L15.2675 16.7885L15.2748 16.7877L15.2456 16.5394ZM15.0582 16.5503V16.8003H15.0655L15.0728 16.7999L15.0582 16.5503ZM16.2079 13.8869L16.3969 13.7228L16.3887 13.7142L16.2079 13.8869ZM16.2388 13.9224L16.05 14.0863L16.1247 14.1724H16.2388V13.9224ZM19.6095 13.9224V14.1724H19.8595V13.9224H19.6095ZM19.6095 9.35906H19.8595V9.07703L19.5795 9.11087L19.6095 9.35906ZM19.5145 9.37054L19.5345 9.61995L19.5445 9.61873L19.5145 9.37054ZM14.0125 7.83606L13.8606 8.03469L13.8662 8.03876L14.0125 7.83606ZM16.8407 3.31478L16.9592 3.09465L16.6758 2.94205L16.5981 3.25447L16.8407 3.31478ZM16.8145 3.42039L17.0553 3.48796L17.0571 3.48069L16.8145 3.42039ZM15.4789 6.11281L15.6731 6.27045L15.6784 6.26347L15.4789 6.11281ZM15.3852 6.22823L15.1911 6.07069L15.0238 6.27687L15.2396 6.43148L15.3852 6.22823ZM15.4358 6.26447L15.2902 6.46783L15.2972 6.47252L15.4358 6.26447ZM19.4898 7.26596L19.5154 7.51476L19.5227 7.5138L19.4898 7.26596ZM19.5739 7.25482L19.6068 7.50265L19.8442 7.47118L19.8229 7.23259L19.5739 7.25482ZM19.5705 7.21592L19.8196 7.19368L19.8185 7.18496L19.5705 7.21592ZM17.0584 3.43196L17.1831 3.21514L17.1769 3.21183L17.0584 3.43196ZM14.5702 2.76864L14.576 2.51864H14.5702V2.76864ZM8.45948 7.00938L8.21279 6.96841L8.21194 6.97444L8.45948 7.00938ZM8.42114 7.28103L8.1736 7.24609L8.13731 7.5032L8.39561 7.52972L8.42114 7.28103ZM8.45211 7.28421L8.42657 7.53304L8.43486 7.53361L8.45211 7.28421ZM14.7299 3.027L14.9686 3.10184L14.9705 3.09521L14.7299 3.027ZM14.8017 2.77401L15.0422 2.84223L15.1303 2.53157L14.8075 2.52408L14.8017 2.77401ZM14.5702 0.916656C18.2812 0.916656 21.3228 3.88887 21.4689 7.57334L21.9685 7.55352C21.8119 3.60448 18.5533 0.416656 14.5702 0.416656V0.916656ZM21.4688 7.56838L21.4745 7.85598L21.9744 7.84608L21.9687 7.55848L21.4688 7.56838ZM21.4744 7.85079L21.4736 8.71327L21.9736 8.71376L21.9744 7.85128L21.4744 7.85079ZM21.7233 8.96352L22.7305 8.96463L22.7311 8.46464L21.7239 8.46352L21.7233 8.96352ZM22.7308 8.96464C23.5355 8.96464 24.2079 9.53966 24.3547 10.2958L24.8456 10.2005C24.6537 9.21226 23.7778 8.46464 22.7308 8.46464V8.96464ZM24.3527 10.284L24.3784 10.4612L24.8732 10.3895L24.8476 10.2123L24.3527 10.284ZM24.3761 10.4373L24.3849 10.6192L24.8843 10.5953L24.8755 10.4133L24.3761 10.4373ZM24.3846 10.6073V14.1316H24.8846V10.6073H24.3846ZM24.3846 14.1316C24.3846 14.9819 23.7282 15.6866 22.8901 15.7665L22.9375 16.2643C24.0271 16.1604 24.8846 15.2448 24.8846 14.1316H24.3846ZM22.902 15.7657L22.7189 15.7744L22.7426 16.2738L22.9257 16.2651L22.902 15.7657ZM22.7308 15.7741L20.6777 15.774L20.6777 16.274L22.7308 16.2741L22.7308 15.7741ZM20.4698 15.8852L20.3282 16.0975L20.7441 16.375L20.8857 16.1628L20.4698 15.8852ZM20.3318 16.0921C19.8781 16.7354 19.3083 17.3432 18.6555 17.8908L18.9768 18.2739C19.6588 17.7018 20.259 17.0628 20.7404 16.3804L20.3318 16.0921ZM18.6592 17.8878L18.3188 18.1623L18.6327 18.5515L18.9731 18.277L18.6592 17.8878ZM18.3267 18.1562L18.0879 18.3334L18.386 18.7349L18.6248 18.5576L18.3267 18.1562ZM17.9872 18.5447L17.9899 18.6078L18.4894 18.5866L18.4867 18.5236L17.9872 18.5447ZM17.9904 18.6175C18.0749 19.6568 18.7867 20.4802 19.7835 20.659L19.8718 20.1669C19.1133 20.0308 18.5561 19.4057 18.4888 18.577L17.9904 18.6175ZM19.7946 20.6607L19.9732 20.6846L20.0394 20.189L19.8607 20.1651L19.7946 20.6607ZM19.9954 20.6865L20.1799 20.6946L20.2018 20.1951L20.0172 20.187L19.9954 20.6865ZM20.1909 20.6948C22.5279 20.6948 24.245 21.0943 25.3756 21.9732C26.4921 22.8409 27.0833 24.2142 27.0833 26.2823H27.5833C27.5833 24.1162 26.9593 22.5708 25.6825 21.5784C24.4199 20.597 22.5657 20.1948 20.1909 20.1948V20.6948ZM27.0833 26.2823C27.0833 26.7233 26.7233 27.0833 26.276 27.0833V27.5833C26.9966 27.5833 27.5833 27.0023 27.5833 26.2823H27.0833ZM26.276 27.0833C25.829 27.0833 25.4689 26.7233 25.4689 26.2823H24.9689C24.9689 27.0022 25.5556 27.5833 26.276 27.5833V27.0833ZM25.4689 26.2823C25.4689 24.7656 25.1163 23.7294 24.2176 23.0974C23.3463 22.4846 22.0157 22.2965 20.1909 22.2965V22.7965C22.0164 22.7965 23.1998 22.9929 23.9299 23.5063C24.6326 24.0005 24.9689 24.8323 24.9689 26.2823H25.4689ZM20.1909 22.2965C19.6604 22.2965 19.145 22.1881 18.6694 21.982L18.4706 22.4408C19.0088 22.674 19.5919 22.7965 20.1909 22.7965V22.2965ZM18.6787 21.9863L18.5775 21.9374L18.3601 22.3877L18.4613 22.4366L18.6787 21.9863ZM18.3227 21.9597L14.215 24.9182L14.5072 25.324L18.6149 22.3654L18.3227 21.9597ZM14.2109 24.9213C13.9927 25.0853 13.7079 25.1262 13.4559 25.038L13.2907 25.5099C13.6977 25.6524 14.1576 25.5868 14.5113 25.3209L14.2109 24.9213ZM13.4726 25.0445L13.3344 24.9847L13.1359 25.4436L13.2741 25.5034L13.4726 25.0445ZM13.3663 25.0014L13.2356 24.9208L12.9733 25.3465L13.104 25.427L13.3663 25.0014ZM13.2505 24.9308L9.3246 22.1037L9.03242 22.5095L12.9583 25.3365L13.2505 24.9308ZM9.0935 22.0715L8.94406 22.1255L9.11409 22.5957L9.26352 22.5417L9.0935 22.0715ZM8.95432 22.1221C8.7708 22.1796 8.58278 22.2232 8.39151 22.2524L8.46704 22.7467C8.68337 22.7136 8.89612 22.6643 9.10382 22.5992L8.95432 22.1221ZM8.40093 22.2511L8.09284 22.2863L8.14953 22.7831L8.45762 22.7479L8.40093 22.2511ZM8.11174 22.2849L7.79955 22.2967L7.81844 22.7963L8.13063 22.7845L8.11174 22.2849ZM7.80899 22.2965C5.98423 22.2965 4.6537 22.4846 3.78244 23.0974C2.88375 23.7294 2.53113 24.7656 2.53113 26.2823H3.03113C3.03113 24.8323 3.36736 24.0006 4.07007 23.5064C4.8002 22.9929 5.98361 22.7965 7.80899 22.7965V22.2965ZM2.53113 26.2823C2.53113 26.7233 2.17106 27.0833 1.724 27.0833V27.5833C2.44443 27.5833 3.03113 27.0022 3.03113 26.2823H2.53113ZM1.724 27.0833C1.27679 27.0833 0.916656 26.7232 0.916656 26.2823H0.416656C0.416656 27.0023 1.00352 27.5833 1.724 27.5833V27.0833ZM0.916656 26.2823C0.916656 24.2143 1.5079 22.841 2.62435 21.9732C3.75499 21.0943 5.47203 20.6948 7.80899 20.6948V20.1948C5.43424 20.1948 3.5801 20.597 2.31751 21.5784C1.04072 22.5708 0.416656 24.1163 0.416656 26.2823H0.916656ZM7.80899 20.6948C8.89467 20.6948 9.81243 19.9034 9.98781 18.8593L9.49472 18.7765C9.3596 19.5809 8.64934 20.1948 7.80899 20.1948V20.6948ZM9.98956 18.8471L9.9932 18.8161L9.49662 18.7577L9.49298 18.7887L9.98956 18.8471ZM9.88507 18.5799L9.65297 18.4227L9.37265 18.8367L9.60475 18.9939L9.88507 18.5799ZM9.6577 18.426C8.83311 17.8396 8.11869 17.1564 7.57014 16.4153L7.16825 16.7127C7.7521 17.5016 8.50618 18.2206 9.36792 18.8335L9.6577 18.426ZM7.57399 16.4206L7.3418 16.0889L6.9322 16.3757L7.1644 16.7074L7.57399 16.4206ZM7.34944 16.1005L7.22019 15.8922L6.79532 16.1558L6.92456 16.3641L7.34944 16.1005ZM7.00774 15.774L5.26917 15.7741L5.2692 16.2741L7.00777 16.274L7.00774 15.774ZM5.26918 15.7741C4.46449 15.7741 3.79204 15.1991 3.64523 14.443L3.1544 14.5383C3.34628 15.5265 4.22216 16.2741 5.26918 16.2741V15.7741ZM3.64723 14.4548L3.62156 14.2776L3.12673 14.3494L3.1524 14.5265L3.64723 14.4548ZM3.62386 14.3015L3.61512 14.1196L3.1157 14.1436L3.12444 14.3255L3.62386 14.3015ZM3.61541 14.1316V10.6073H3.11541V14.1316H3.61541ZM3.61541 10.6073C3.61541 9.75683 4.2717 9.05212 5.10989 8.97219L5.06242 8.47445C3.97276 8.57835 3.11541 9.49397 3.11541 10.6073H3.61541ZM5.098 8.97304L5.28103 8.96435L5.25734 8.46492L5.07431 8.4736L5.098 8.97304ZM5.26946 8.96463L6.27566 8.96352L6.27511 8.46352L5.26891 8.46464L5.26946 8.96463ZM6.52539 8.71362L6.52575 7.85093L6.02575 7.85072L6.02539 8.71341L6.52539 8.71362ZM6.52575 7.85083C6.52575 4.22766 9.32679 1.22677 12.8711 0.939227L12.8307 0.440864C9.02702 0.749446 6.02575 3.96692 6.02575 7.85083H6.52575ZM12.866 0.939589L13.1576 0.921937L13.1274 0.422851L12.8358 0.440502L12.866 0.939589ZM13.1475 0.922344L13.4347 0.916607L13.4247 0.416706L13.1375 0.422444L13.1475 0.922344ZM13.4297 0.916656H14.5702V0.416656H13.4297V0.916656ZM16.6247 19.866L16.537 19.6116L16.0643 19.7744L16.152 20.0289L16.6247 19.866ZM16.1746 19.4771L16.1601 19.4856L16.4122 19.9174L16.4267 19.9089L16.1746 19.4771ZM16.1798 19.4752C15.282 19.8972 14.4639 20.1242 13.9025 20.1242V20.6242C14.5709 20.6242 15.4671 20.3627 16.3925 19.9277L16.1798 19.4752ZM13.9025 20.1242C13.4238 20.1242 12.7914 19.9882 12.0925 19.7279L11.918 20.1965C12.6474 20.4681 13.3421 20.6242 13.9025 20.6242V20.1242ZM12.097 19.7297L11.7467 19.5914L11.5631 20.0565L11.9135 20.1948L12.097 19.7297ZM11.421 19.7356L11.3288 19.9797L11.7966 20.1563L11.8888 19.9123L11.421 19.7356ZM11.3327 19.9701C11.2293 20.2132 11.1006 20.4449 10.9489 20.6615L11.3585 20.9483C11.53 20.7034 11.6757 20.4412 11.7928 20.1658L11.3327 19.9701ZM10.9545 20.6539L10.7918 20.8684L11.1902 21.1705L11.3529 20.956L10.9545 20.6539ZM10.8449 21.2223L13.5768 23.1891L13.869 22.7833L11.1371 20.8165L10.8449 21.2223ZM13.8689 23.1891L16.9617 20.9631L16.6697 20.5573L13.5769 22.7833L13.8689 23.1891ZM17.0217 20.6186L17.007 20.5972L16.595 20.8804L16.6097 20.9018L17.0217 20.6186ZM17.0086 20.5994C16.8523 20.3667 16.7225 20.1178 16.6214 19.8571L16.1552 20.0378C16.2697 20.3331 16.4167 20.6148 16.5934 20.8781L17.0086 20.5994ZM13.7111 7.52437L13.578 7.62708L13.8835 8.02292L14.0166 7.92021L13.7111 7.52437ZM13.5841 7.62251C12.1166 8.68512 10.3283 9.22755 8.49297 9.13801L8.4686 9.63741C10.4186 9.73255 12.3187 9.15606 13.8774 8.02749L13.5841 7.62251ZM8.50149 9.13857L8.4089 9.13087L8.36749 9.62916L8.46008 9.63685L8.50149 9.13857ZM8.13819 9.37947L8.12809 14.0064L8.62809 14.0075L8.63819 9.38056L8.13819 9.37947ZM8.13964 14.082C8.43295 15.0135 9.09842 15.8976 10.0031 16.6644L10.3264 16.283C9.46875 15.556 8.87306 14.7464 8.61655 13.9319L8.13964 14.082ZM10.007 16.6677L10.2788 16.8887L10.5943 16.5008L10.3225 16.2798L10.007 16.6677ZM10.2827 16.8918C10.9011 17.3746 11.5837 17.7795 12.2172 18.0645C12.8439 18.3465 13.4477 18.5227 13.9024 18.5227V18.0227C13.5531 18.0227 13.0263 17.8803 12.4224 17.6086C11.8252 17.3398 11.177 16.9557 10.5904 16.4977L10.2827 16.8918ZM13.9024 18.5227C14.3762 18.5227 15.0374 18.2942 15.7191 17.943C16.4108 17.5867 17.1589 17.0857 17.8142 16.5025L17.4818 16.129C16.859 16.6832 16.1459 17.1607 15.4902 17.4985C14.8244 17.8415 14.2519 18.0227 13.9024 18.0227V18.5227ZM17.8177 16.4994L18.0718 16.2645L17.7324 15.8973L17.4783 16.1322L17.8177 16.4994ZM18.081 16.2556L18.1366 16.1987L17.7789 15.8493L17.7233 15.9062L18.081 16.2556ZM17.9577 15.774H16.2374V16.274H17.9577V15.774ZM16.0443 15.8652L16.0148 15.9012L16.401 16.2187L16.4306 16.1828L16.0443 15.8652ZM16.0272 15.8872C15.8139 16.1104 15.5284 16.2545 15.2165 16.2911L15.2748 16.7877C15.703 16.7374 16.0955 16.5394 16.3887 16.2326L16.0272 15.8872ZM15.231 16.2898L15.0436 16.3008L15.0728 16.7999L15.2602 16.789L15.231 16.2898ZM15.0582 16.3003C14.3189 16.3003 13.722 15.7048 13.722 14.9735H13.222C13.222 15.9837 14.0455 16.8003 15.0582 16.8003V16.3003ZM13.722 14.9735C13.722 14.2418 14.3188 13.6463 15.0582 13.6463V13.1463C14.0453 13.1463 13.222 13.963 13.222 14.9735H13.722ZM15.0582 13.6463C15.4313 13.6463 15.7784 13.7991 16.0272 14.0596L16.3887 13.7142C16.0467 13.3561 15.5694 13.1463 15.0582 13.1463V13.6463ZM16.0192 14.0508L16.05 14.0863L16.4275 13.7585L16.3967 13.723L16.0192 14.0508ZM16.2388 14.1724H19.6095V13.6724H16.2388V14.1724ZM19.8595 13.9224V9.35906H19.3595V13.9224H19.8595ZM19.5795 9.11087L19.4845 9.12235L19.5445 9.61873L19.6395 9.60726L19.5795 9.11087ZM19.4946 9.12134C17.5909 9.27365 15.7001 8.74597 14.1589 7.63336L13.8662 8.03876C15.5041 9.22118 17.513 9.78149 19.5345 9.61974L19.4946 9.12134ZM14.1644 7.6375L14.0157 7.52373L13.7119 7.92085L13.8606 8.03461L14.1644 7.6375ZM4.83003 11.6134V13.1242H5.33003V11.6134H4.83003ZM6.92385 13.1242V11.6134H6.42385V13.1242H6.92385ZM5.87694 14.1711C6.45513 14.1711 6.92385 13.7024 6.92385 13.1242H6.42385C6.42385 13.4262 6.17899 13.6711 5.87694 13.6711V14.1711ZM4.83003 13.1242C4.83003 13.7024 5.29875 14.1711 5.87694 14.1711V13.6711C5.57489 13.6711 5.33003 13.4262 5.33003 13.1242H4.83003ZM5.87694 10.5664C5.29875 10.5664 4.83003 11.0352 4.83003 11.6134H5.33003C5.33003 11.3113 5.57489 11.0664 5.87694 11.0664V10.5664ZM5.87694 11.0664C6.17899 11.0664 6.42385 11.3113 6.42385 11.6134H6.92385C6.92385 11.0352 6.45513 10.5664 5.87694 10.5664V11.0664ZM21.0758 11.612V13.1255H21.5758V11.612H21.0758ZM23.167 13.1255V11.612H22.667V13.1255H23.167ZM22.1214 14.1711C22.6989 14.1711 23.167 13.703 23.167 13.1255H22.667C22.667 13.4268 22.4227 13.6711 22.1214 13.6711V14.1711ZM21.0758 13.1255C21.0758 13.7029 21.5439 14.1711 22.1214 14.1711V13.6711C21.8201 13.6711 21.5758 13.4268 21.5758 13.1255H21.0758ZM22.1214 10.5664C21.5439 10.5664 21.0758 11.0346 21.0758 11.612H21.5758C21.5758 11.3107 21.8201 11.0664 22.1214 11.0664V10.5664ZM22.1214 11.0664C22.4227 11.0664 22.667 11.3107 22.667 11.612H23.167C23.167 11.0346 22.6989 10.5664 22.1214 10.5664V11.0664ZM16.5981 3.25447L16.5719 3.36008L17.0571 3.48069L17.0833 3.37509L16.5981 3.25447ZM16.5738 3.35284C16.3079 4.30037 15.8682 5.18237 15.2794 5.96215L15.6784 6.26347C16.3045 5.43434 16.7723 4.49604 17.0552 3.48793L16.5738 3.35284ZM15.2848 5.95527L15.1911 6.07069L15.5793 6.38578L15.673 6.27036L15.2848 5.95527ZM15.2396 6.43148L15.2902 6.46772L15.5814 6.06122L15.5308 6.02499L15.2396 6.43148ZM15.2972 6.47252C16.5366 7.2983 18.0285 7.66756 19.5154 7.51465L19.4643 7.01727C18.0928 7.15832 16.717 6.81766 15.5744 6.05642L15.2972 6.47252ZM19.5227 7.5138L19.6068 7.50265L19.5411 7.00699L19.457 7.01813L19.5227 7.5138ZM19.8229 7.23259L19.8195 7.19369L19.3215 7.23816L19.3249 7.27705L19.8229 7.23259ZM19.8185 7.18496C19.6096 5.51063 18.6192 4.04094 17.183 3.21523L16.9338 3.64869C18.2348 4.39668 19.133 5.7293 19.3224 7.24689L19.8185 7.18496ZM17.1769 3.21183L16.9592 3.09465L16.7222 3.53491L16.9399 3.65209L17.1769 3.21183ZM14.5702 2.51864H13.4298V3.01864H14.5702V2.51864ZM13.4298 2.51864C10.8162 2.51864 8.63248 4.44176 8.21286 6.96842L8.70611 7.05034C9.08677 4.75821 11.0675 3.01864 13.4298 3.01864V2.51864ZM8.21194 6.97444L8.1736 7.24609L8.66869 7.31597L8.70703 7.04432L8.21194 6.97444ZM8.39561 7.52972L8.42658 7.5329L8.47765 7.03551L8.44668 7.03233L8.39561 7.52972ZM8.43486 7.53361C11.3891 7.73804 14.0971 5.88009 14.9685 3.10181L14.4914 2.95218C13.6896 5.50868 11.194 7.22334 8.46937 7.0348L8.43486 7.53361ZM14.9705 3.09521L15.0422 2.84223L14.5612 2.70579L14.4894 2.95878L14.9705 3.09521ZM14.8075 2.52408L14.576 2.5187L14.5644 3.01857L14.7959 3.02394L14.8075 2.52408Z" fill="white"/>
</svg>
