<svg width="20" height="20" viewBox="0 0 20 20" fill="none" xmlns="http://www.w3.org/2000/svg">
<path fill-rule="evenodd" clip-rule="evenodd" d="M10.0057 10.0108C12.7304 10.0108 14.9513 7.72138 14.9513 4.9352C14.9513 2.17063 12.7418 0 10.0057 0C7.2925 0 5.0601 2.21382 5.0601 4.9568C5.07155 7.73218 7.28105 10.0108 10.0057 10.0108ZM10.0057 8.38013C8.33429 8.38013 6.90326 6.86825 6.90326 4.9568C6.90326 3.07775 8.31139 1.63067 10.0057 1.63067C11.7115 1.63067 13.1082 3.05616 13.1082 4.93521C13.1082 6.84665 11.6886 8.38013 10.0057 8.38013ZM17.1952 20C19.0956 20 20 19.46 20 18.2721C20 15.4428 16.2106 11.3499 10.0057 11.3499C3.78935 11.3499 0 15.4428 0 18.2721C0 19.46 0.904408 20 2.80481 20H17.1952ZM17.7447 18.3693H2.26674C1.96909 18.3693 1.84316 18.2937 1.84316 18.067C1.84316 16.2959 4.751 12.9806 10.0057 12.9806C15.249 12.9806 18.1568 16.2959 18.1568 18.067C18.1568 18.2937 18.0424 18.3693 17.7447 18.3693Z" fill="#7B8E98"/>
</svg>
